<svg viewBox="0 0 186.2 33.5" xmlns="http://www.w3.org/2000/svg" data-name="Layer 1" id="Layer_1"><path d="M10.8,14.9h10V31.6a22.6,22.6,0,0,1-9,1.8,9.87,9.87,0,0,1-8.7-4.3c-2-2.9-3.1-7-3.1-12.4C0,11.5,1.2,7.4,3.5,4.4S9.1,0,13.3,0a14.94,14.94,0,0,1,7.4,2L18.8,6.9a10.08,10.08,0,0,0-5.2-1.6A6.27,6.27,0,0,0,8.1,8.4a15.81,15.81,0,0,0-2,8.4c0,3.7.5,6.4,1.5,8.4s2.4,2.9,4.2,2.9a10.32,10.32,0,0,0,3-.4V20.2h-4Z"></path><path d="M25.7,32.9V.4h6.1V27.7h8.4V33l-14.5-.1Z"></path><path d="M59.4,32.9l-1.9-8.2H49l-1.8,8.2H41.1L49.2.2h8.2l8.1,32.7Zm-3-13.6-1.7-7.6c-.1-.5-.3-1.6-.7-3.5s-.6-3.1-.7-3.7c-.2,1.3-.4,2.7-.7,4.2s-1.1,5-2.3,10.5h6.1Z"></path><path d="M80,32.9,73.8,5.2h-.2a41.76,41.76,0,0,1,.4,5.9V32.9H68.4V.4h9.3L83.3,26h.2L89,.4h9.4V32.9H92.7v-22A54,54,0,0,1,93,5.3h-.2L86.6,33,80,32.9Z"></path><path d="M121.9,32.9h-2.7L106.9,3.7h-.2c.2,2,.3,4,.3,5.8V32.9h-2.1V.4h2.8l12.2,28.9h.1c-.1-2.4-.2-4.5-.2-6.1V.4h2.1V32.9Z"></path><path d="M140.9,32.9H129.1V.4h11.8V2.5h-9.6V14.9h9.1V17h-9.1V30.9h9.6Z"></path><path d="M152,32.9h-2.2V2.5h-6.5V.4h15.1V2.5h-6.5l.1,30.4Z"></path><path d="M162.4,32.9V.4h2.2V32.9Z"></path><path d="M180.9,2c-2.4,0-4.4,1.3-5.8,3.9s-2.2,6.2-2.2,10.8a25.93,25.93,0,0,0,1,7.8,11.43,11.43,0,0,0,2.9,5.1,6,6,0,0,0,4.3,1.8,10.17,10.17,0,0,0,4.4-.9v2a9,9,0,0,1-4.6,1,8,8,0,0,1-5.4-2,12.82,12.82,0,0,1-3.6-5.8,29.51,29.51,0,0,1-1.3-9c0-5.2.9-9.3,2.8-12.2A8.51,8.51,0,0,1,181,0a9.85,9.85,0,0,1,5.2,1.4l-1,1.9A7.06,7.06,0,0,0,180.9,2Z"></path></svg>
